<mxfile host="app.diagrams.net" modified="2023-03-21T10:34:34.563Z" agent="5.0 (Windows NT 10.0; Win64; x64) AppleWebKit/537.36 (KHTML, like Gecko) Chrome/111.0.0.0 Safari/537.36" etag="qV4XdIlwTyyedsDXSZIV" version="21.0.8" type="github">
  <diagram id="R2lEEEUBdFMjLlhIrx00" name="Page-1">
    <mxGraphModel dx="2318" dy="1998" grid="1" gridSize="10" guides="1" tooltips="1" connect="1" arrows="1" fold="1" page="1" pageScale="1" pageWidth="850" pageHeight="1100" math="0" shadow="0" extFonts="Permanent Marker^https://fonts.googleapis.com/css?family=Permanent+Marker">
      <root>
        <mxCell id="0" />
        <mxCell id="1" parent="0" />
        <mxCell id="C-vyLk0tnHw3VtMMgP7b-1" value="" style="edgeStyle=entityRelationEdgeStyle;endArrow=ERzeroToMany;startArrow=ERone;endFill=1;startFill=0;entryX=0.012;entryY=0.277;entryDx=0;entryDy=0;entryPerimeter=0;exitX=1.011;exitY=0.1;exitDx=0;exitDy=0;exitPerimeter=0;" parent="1" source="C-vyLk0tnHw3VtMMgP7b-27" target="kza9Rs9y_WehxQbTQ6U_-5" edge="1">
          <mxGeometry width="100" height="100" relative="1" as="geometry">
            <mxPoint x="270" y="745" as="sourcePoint" />
            <mxPoint x="370" y="645" as="targetPoint" />
          </mxGeometry>
        </mxCell>
        <mxCell id="kza9Rs9y_WehxQbTQ6U_-17" value="一本书有一页或者多页" style="edgeLabel;html=1;align=center;verticalAlign=middle;resizable=0;points=[];" vertex="1" connectable="0" parent="C-vyLk0tnHw3VtMMgP7b-1">
          <mxGeometry x="0.0441" y="-1" relative="1" as="geometry">
            <mxPoint as="offset" />
          </mxGeometry>
        </mxCell>
        <mxCell id="C-vyLk0tnHw3VtMMgP7b-23" value="书籍" style="shape=table;startSize=30;container=1;collapsible=1;childLayout=tableLayout;fixedRows=1;rowLines=0;fontStyle=1;align=center;resizeLast=1;" parent="1" vertex="1">
          <mxGeometry x="-160" y="-360" width="210" height="210" as="geometry" />
        </mxCell>
        <mxCell id="C-vyLk0tnHw3VtMMgP7b-24" value="" style="shape=partialRectangle;collapsible=0;dropTarget=0;pointerEvents=0;fillColor=none;points=[[0,0.5],[1,0.5]];portConstraint=eastwest;top=0;left=0;right=0;bottom=1;" parent="C-vyLk0tnHw3VtMMgP7b-23" vertex="1">
          <mxGeometry y="30" width="210" height="20" as="geometry" />
        </mxCell>
        <mxCell id="C-vyLk0tnHw3VtMMgP7b-25" value="PK" style="shape=partialRectangle;overflow=hidden;connectable=0;fillColor=none;top=0;left=0;bottom=0;right=0;fontStyle=1;" parent="C-vyLk0tnHw3VtMMgP7b-24" vertex="1">
          <mxGeometry width="30" height="20" as="geometry">
            <mxRectangle width="30" height="20" as="alternateBounds" />
          </mxGeometry>
        </mxCell>
        <mxCell id="C-vyLk0tnHw3VtMMgP7b-26" value="id int NOT NULL " style="shape=partialRectangle;overflow=hidden;connectable=0;fillColor=none;top=0;left=0;bottom=0;right=0;align=left;spacingLeft=6;fontStyle=5;" parent="C-vyLk0tnHw3VtMMgP7b-24" vertex="1">
          <mxGeometry x="30" width="180" height="20" as="geometry">
            <mxRectangle width="180" height="20" as="alternateBounds" />
          </mxGeometry>
        </mxCell>
        <mxCell id="C-vyLk0tnHw3VtMMgP7b-27" value="" style="shape=partialRectangle;collapsible=0;dropTarget=0;pointerEvents=0;fillColor=none;points=[[0,0.5],[1,0.5]];portConstraint=eastwest;top=0;left=0;right=0;bottom=0;" parent="C-vyLk0tnHw3VtMMgP7b-23" vertex="1">
          <mxGeometry y="50" width="210" height="160" as="geometry" />
        </mxCell>
        <mxCell id="C-vyLk0tnHw3VtMMgP7b-28" value="" style="shape=partialRectangle;overflow=hidden;connectable=0;fillColor=none;top=0;left=0;bottom=0;right=0;" parent="C-vyLk0tnHw3VtMMgP7b-27" vertex="1">
          <mxGeometry width="30" height="160" as="geometry">
            <mxRectangle width="30" height="160" as="alternateBounds" />
          </mxGeometry>
        </mxCell>
        <mxCell id="C-vyLk0tnHw3VtMMgP7b-29" value="图书编码&#xa;图书类别&#xa;图书格式【文本/音频】&#xa;标题 char&#xa;描述 char&#xa;价格 int&#xa;TAG 规则标签&#xa;作者 char&#xa;创建时间 date&#xa;更新时间 date" style="shape=partialRectangle;overflow=hidden;connectable=0;fillColor=none;top=0;left=0;bottom=0;right=0;align=left;spacingLeft=6;" parent="C-vyLk0tnHw3VtMMgP7b-27" vertex="1">
          <mxGeometry x="30" width="180" height="160" as="geometry">
            <mxRectangle width="180" height="160" as="alternateBounds" />
          </mxGeometry>
        </mxCell>
        <mxCell id="kza9Rs9y_WehxQbTQ6U_-1" value="章节表" style="shape=table;startSize=30;container=1;collapsible=1;childLayout=tableLayout;fixedRows=1;rowLines=0;fontStyle=1;align=center;resizeLast=1;" vertex="1" parent="1">
          <mxGeometry x="350" y="-310" width="160" height="170" as="geometry" />
        </mxCell>
        <mxCell id="kza9Rs9y_WehxQbTQ6U_-2" value="" style="shape=partialRectangle;collapsible=0;dropTarget=0;pointerEvents=0;fillColor=none;points=[[0,0.5],[1,0.5]];portConstraint=eastwest;top=0;left=0;right=0;bottom=1;" vertex="1" parent="kza9Rs9y_WehxQbTQ6U_-1">
          <mxGeometry y="30" width="160" height="20" as="geometry" />
        </mxCell>
        <mxCell id="kza9Rs9y_WehxQbTQ6U_-3" value="PK" style="shape=partialRectangle;overflow=hidden;connectable=0;fillColor=none;top=0;left=0;bottom=0;right=0;fontStyle=1;" vertex="1" parent="kza9Rs9y_WehxQbTQ6U_-2">
          <mxGeometry width="30" height="20" as="geometry">
            <mxRectangle width="30" height="20" as="alternateBounds" />
          </mxGeometry>
        </mxCell>
        <mxCell id="kza9Rs9y_WehxQbTQ6U_-4" value="id int NOT NULL " style="shape=partialRectangle;overflow=hidden;connectable=0;fillColor=none;top=0;left=0;bottom=0;right=0;align=left;spacingLeft=6;fontStyle=5;" vertex="1" parent="kza9Rs9y_WehxQbTQ6U_-2">
          <mxGeometry x="30" width="130" height="20" as="geometry">
            <mxRectangle width="130" height="20" as="alternateBounds" />
          </mxGeometry>
        </mxCell>
        <mxCell id="kza9Rs9y_WehxQbTQ6U_-5" value="" style="shape=partialRectangle;collapsible=0;dropTarget=0;pointerEvents=0;fillColor=none;points=[[0,0.5],[1,0.5]];portConstraint=eastwest;top=0;left=0;right=0;bottom=0;" vertex="1" parent="kza9Rs9y_WehxQbTQ6U_-1">
          <mxGeometry y="50" width="160" height="120" as="geometry" />
        </mxCell>
        <mxCell id="kza9Rs9y_WehxQbTQ6U_-6" value="" style="shape=partialRectangle;overflow=hidden;connectable=0;fillColor=none;top=0;left=0;bottom=0;right=0;" vertex="1" parent="kza9Rs9y_WehxQbTQ6U_-5">
          <mxGeometry width="30" height="120" as="geometry">
            <mxRectangle width="30" height="120" as="alternateBounds" />
          </mxGeometry>
        </mxCell>
        <mxCell id="kza9Rs9y_WehxQbTQ6U_-7" value="基础元素ID int&#xa;章节标题 char&#xa;页码 int&#xa;内容地址 char&#xa;是否免费 char&#xa;创建时间 date&#xa;更新时间 date" style="shape=partialRectangle;overflow=hidden;connectable=0;fillColor=none;top=0;left=0;bottom=0;right=0;align=left;spacingLeft=6;" vertex="1" parent="kza9Rs9y_WehxQbTQ6U_-5">
          <mxGeometry x="30" width="130" height="120" as="geometry">
            <mxRectangle width="130" height="120" as="alternateBounds" />
          </mxGeometry>
        </mxCell>
        <mxCell id="kza9Rs9y_WehxQbTQ6U_-8" value="文件表" style="shape=table;startSize=20;container=1;collapsible=1;childLayout=tableLayout;fixedRows=1;rowLines=0;fontStyle=1;align=center;resizeLast=1;" vertex="1" parent="1">
          <mxGeometry x="720" y="-420" width="160" height="180" as="geometry" />
        </mxCell>
        <mxCell id="kza9Rs9y_WehxQbTQ6U_-9" value="" style="shape=partialRectangle;collapsible=0;dropTarget=0;pointerEvents=0;fillColor=none;points=[[0,0.5],[1,0.5]];portConstraint=eastwest;top=0;left=0;right=0;bottom=1;" vertex="1" parent="kza9Rs9y_WehxQbTQ6U_-8">
          <mxGeometry y="20" width="160" height="30" as="geometry" />
        </mxCell>
        <mxCell id="kza9Rs9y_WehxQbTQ6U_-10" value="PK" style="shape=partialRectangle;overflow=hidden;connectable=0;fillColor=none;top=0;left=0;bottom=0;right=0;fontStyle=1;" vertex="1" parent="kza9Rs9y_WehxQbTQ6U_-9">
          <mxGeometry width="30" height="30" as="geometry">
            <mxRectangle width="30" height="30" as="alternateBounds" />
          </mxGeometry>
        </mxCell>
        <mxCell id="kza9Rs9y_WehxQbTQ6U_-11" value="id int NOT NULL " style="shape=partialRectangle;overflow=hidden;connectable=0;fillColor=none;top=0;left=0;bottom=0;right=0;align=left;spacingLeft=6;fontStyle=5;" vertex="1" parent="kza9Rs9y_WehxQbTQ6U_-9">
          <mxGeometry x="30" width="130" height="30" as="geometry">
            <mxRectangle width="130" height="30" as="alternateBounds" />
          </mxGeometry>
        </mxCell>
        <mxCell id="kza9Rs9y_WehxQbTQ6U_-12" value="" style="shape=partialRectangle;collapsible=0;dropTarget=0;pointerEvents=0;fillColor=none;points=[[0,0.5],[1,0.5]];portConstraint=eastwest;top=0;left=0;right=0;bottom=0;" vertex="1" parent="kza9Rs9y_WehxQbTQ6U_-8">
          <mxGeometry y="50" width="160" height="120" as="geometry" />
        </mxCell>
        <mxCell id="kza9Rs9y_WehxQbTQ6U_-13" value="" style="shape=partialRectangle;overflow=hidden;connectable=0;fillColor=none;top=0;left=0;bottom=0;right=0;" vertex="1" parent="kza9Rs9y_WehxQbTQ6U_-12">
          <mxGeometry width="30" height="120" as="geometry">
            <mxRectangle width="30" height="120" as="alternateBounds" />
          </mxGeometry>
        </mxCell>
        <mxCell id="kza9Rs9y_WehxQbTQ6U_-14" value="基础元素ID int&#xa;章节标题 char&#xa;页码 int&#xa;内容 Blob&#xa;元数据信息 JSON&#xa;创建时间 date&#xa;更新时间 date" style="shape=partialRectangle;overflow=hidden;connectable=0;fillColor=none;top=0;left=0;bottom=0;right=0;align=left;spacingLeft=6;" vertex="1" parent="kza9Rs9y_WehxQbTQ6U_-12">
          <mxGeometry x="30" width="130" height="120" as="geometry">
            <mxRectangle width="130" height="120" as="alternateBounds" />
          </mxGeometry>
        </mxCell>
        <mxCell id="kza9Rs9y_WehxQbTQ6U_-16" value="" style="edgeStyle=entityRelationEdgeStyle;fontSize=12;html=1;endArrow=ERzeroToOne;startArrow=ERmandOne;rounded=0;" edge="1" parent="1" source="kza9Rs9y_WehxQbTQ6U_-5" target="kza9Rs9y_WehxQbTQ6U_-12">
          <mxGeometry width="100" height="100" relative="1" as="geometry">
            <mxPoint x="470" y="145" as="sourcePoint" />
            <mxPoint x="570" y="45" as="targetPoint" />
          </mxGeometry>
        </mxCell>
        <mxCell id="kza9Rs9y_WehxQbTQ6U_-18" value="内容存放表或者oss" style="edgeLabel;html=1;align=center;verticalAlign=middle;resizable=0;points=[];" vertex="1" connectable="0" parent="kza9Rs9y_WehxQbTQ6U_-16">
          <mxGeometry x="0.0416" y="-3" relative="1" as="geometry">
            <mxPoint as="offset" />
          </mxGeometry>
        </mxCell>
        <mxCell id="kza9Rs9y_WehxQbTQ6U_-19" value="文件存储" style="shape=dataStorage;whiteSpace=wrap;html=1;fixedSize=1;" vertex="1" parent="1">
          <mxGeometry x="770" y="-130" width="150" height="85" as="geometry" />
        </mxCell>
        <mxCell id="kza9Rs9y_WehxQbTQ6U_-20" value="" style="edgeStyle=entityRelationEdgeStyle;fontSize=12;html=1;endArrow=ERzeroToOne;startArrow=ERmandOne;rounded=0;entryX=0;entryY=0.5;entryDx=0;entryDy=0;exitX=1.006;exitY=0.567;exitDx=0;exitDy=0;exitPerimeter=0;" edge="1" parent="1" source="kza9Rs9y_WehxQbTQ6U_-5" target="kza9Rs9y_WehxQbTQ6U_-19">
          <mxGeometry width="100" height="100" relative="1" as="geometry">
            <mxPoint x="480" y="130" as="sourcePoint" />
            <mxPoint x="680" y="55" as="targetPoint" />
          </mxGeometry>
        </mxCell>
        <mxCell id="kza9Rs9y_WehxQbTQ6U_-21" value="内容存放表或者文件系统" style="edgeLabel;html=1;align=center;verticalAlign=middle;resizable=0;points=[];" vertex="1" connectable="0" parent="kza9Rs9y_WehxQbTQ6U_-20">
          <mxGeometry x="0.0416" y="-3" relative="1" as="geometry">
            <mxPoint as="offset" />
          </mxGeometry>
        </mxCell>
        <mxCell id="kza9Rs9y_WehxQbTQ6U_-22" value="模块" style="shape=table;startSize=30;container=1;collapsible=1;childLayout=tableLayout;fixedRows=1;rowLines=0;fontStyle=1;align=center;resizeLast=1;" vertex="1" parent="1">
          <mxGeometry x="300" y="1000" width="225" height="180" as="geometry" />
        </mxCell>
        <mxCell id="kza9Rs9y_WehxQbTQ6U_-23" value="" style="shape=partialRectangle;collapsible=0;dropTarget=0;pointerEvents=0;fillColor=none;points=[[0,0.5],[1,0.5]];portConstraint=eastwest;top=0;left=0;right=0;bottom=1;" vertex="1" parent="kza9Rs9y_WehxQbTQ6U_-22">
          <mxGeometry y="30" width="225" height="30" as="geometry" />
        </mxCell>
        <mxCell id="kza9Rs9y_WehxQbTQ6U_-24" value="PK" style="shape=partialRectangle;overflow=hidden;connectable=0;fillColor=none;top=0;left=0;bottom=0;right=0;fontStyle=1;" vertex="1" parent="kza9Rs9y_WehxQbTQ6U_-23">
          <mxGeometry width="30" height="30" as="geometry">
            <mxRectangle width="30" height="30" as="alternateBounds" />
          </mxGeometry>
        </mxCell>
        <mxCell id="kza9Rs9y_WehxQbTQ6U_-25" value="id int NOT NULL " style="shape=partialRectangle;overflow=hidden;connectable=0;fillColor=none;top=0;left=0;bottom=0;right=0;align=left;spacingLeft=6;fontStyle=5;" vertex="1" parent="kza9Rs9y_WehxQbTQ6U_-23">
          <mxGeometry x="30" width="195" height="30" as="geometry">
            <mxRectangle width="195" height="30" as="alternateBounds" />
          </mxGeometry>
        </mxCell>
        <mxCell id="kza9Rs9y_WehxQbTQ6U_-26" value="" style="shape=partialRectangle;collapsible=0;dropTarget=0;pointerEvents=0;fillColor=none;points=[[0,0.5],[1,0.5]];portConstraint=eastwest;top=0;left=0;right=0;bottom=0;" vertex="1" parent="kza9Rs9y_WehxQbTQ6U_-22">
          <mxGeometry y="60" width="225" height="120" as="geometry" />
        </mxCell>
        <mxCell id="kza9Rs9y_WehxQbTQ6U_-27" value="" style="shape=partialRectangle;overflow=hidden;connectable=0;fillColor=none;top=0;left=0;bottom=0;right=0;" vertex="1" parent="kza9Rs9y_WehxQbTQ6U_-26">
          <mxGeometry width="30" height="120" as="geometry">
            <mxRectangle width="30" height="120" as="alternateBounds" />
          </mxGeometry>
        </mxCell>
        <mxCell id="kza9Rs9y_WehxQbTQ6U_-28" value="模块编码&#xa;所属渠道&#xa;上级模块&#xa;状态&#xa;创建时间&#xa;更新时间" style="shape=partialRectangle;overflow=hidden;connectable=0;fillColor=none;top=0;left=0;bottom=0;right=0;align=left;spacingLeft=6;" vertex="1" parent="kza9Rs9y_WehxQbTQ6U_-26">
          <mxGeometry x="30" width="195" height="120" as="geometry">
            <mxRectangle width="195" height="120" as="alternateBounds" />
          </mxGeometry>
        </mxCell>
        <mxCell id="kza9Rs9y_WehxQbTQ6U_-31" value="模块列表" style="shape=table;startSize=30;container=1;collapsible=1;childLayout=tableLayout;fixedRows=1;rowLines=0;fontStyle=1;align=center;resizeLast=1;" vertex="1" parent="1">
          <mxGeometry x="630" y="1000" width="200" height="165" as="geometry" />
        </mxCell>
        <mxCell id="kza9Rs9y_WehxQbTQ6U_-32" value="" style="shape=partialRectangle;collapsible=0;dropTarget=0;pointerEvents=0;fillColor=none;points=[[0,0.5],[1,0.5]];portConstraint=eastwest;top=0;left=0;right=0;bottom=1;" vertex="1" parent="kza9Rs9y_WehxQbTQ6U_-31">
          <mxGeometry y="30" width="200" height="30" as="geometry" />
        </mxCell>
        <mxCell id="kza9Rs9y_WehxQbTQ6U_-33" value="PK" style="shape=partialRectangle;overflow=hidden;connectable=0;fillColor=none;top=0;left=0;bottom=0;right=0;fontStyle=1;" vertex="1" parent="kza9Rs9y_WehxQbTQ6U_-32">
          <mxGeometry width="30" height="30" as="geometry">
            <mxRectangle width="30" height="30" as="alternateBounds" />
          </mxGeometry>
        </mxCell>
        <mxCell id="kza9Rs9y_WehxQbTQ6U_-34" value="id int NOT NULL " style="shape=partialRectangle;overflow=hidden;connectable=0;fillColor=none;top=0;left=0;bottom=0;right=0;align=left;spacingLeft=6;fontStyle=5;" vertex="1" parent="kza9Rs9y_WehxQbTQ6U_-32">
          <mxGeometry x="30" width="170" height="30" as="geometry">
            <mxRectangle width="170" height="30" as="alternateBounds" />
          </mxGeometry>
        </mxCell>
        <mxCell id="kza9Rs9y_WehxQbTQ6U_-35" value="" style="shape=partialRectangle;collapsible=0;dropTarget=0;pointerEvents=0;fillColor=none;points=[[0,0.5],[1,0.5]];portConstraint=eastwest;top=0;left=0;right=0;bottom=0;" vertex="1" parent="kza9Rs9y_WehxQbTQ6U_-31">
          <mxGeometry y="60" width="200" height="105" as="geometry" />
        </mxCell>
        <mxCell id="kza9Rs9y_WehxQbTQ6U_-36" value="" style="shape=partialRectangle;overflow=hidden;connectable=0;fillColor=none;top=0;left=0;bottom=0;right=0;" vertex="1" parent="kza9Rs9y_WehxQbTQ6U_-35">
          <mxGeometry width="30" height="105" as="geometry">
            <mxRectangle width="30" height="105" as="alternateBounds" />
          </mxGeometry>
        </mxCell>
        <mxCell id="kza9Rs9y_WehxQbTQ6U_-37" value="模块编码 char&#xa;图书编码 char&#xa;状态&#xa;排序 int&#xa;创建时间&#xa;" style="shape=partialRectangle;overflow=hidden;connectable=0;fillColor=none;top=0;left=0;bottom=0;right=0;align=left;spacingLeft=6;" vertex="1" parent="kza9Rs9y_WehxQbTQ6U_-35">
          <mxGeometry x="30" width="170" height="105" as="geometry">
            <mxRectangle width="170" height="105" as="alternateBounds" />
          </mxGeometry>
        </mxCell>
        <mxCell id="kza9Rs9y_WehxQbTQ6U_-41" value="机构/学校" style="shape=table;startSize=30;container=1;collapsible=1;childLayout=tableLayout;fixedRows=1;rowLines=0;fontStyle=1;align=center;resizeLast=1;" vertex="1" parent="1">
          <mxGeometry x="-540" y="1580" width="150" height="180" as="geometry" />
        </mxCell>
        <mxCell id="kza9Rs9y_WehxQbTQ6U_-42" value="" style="shape=partialRectangle;collapsible=0;dropTarget=0;pointerEvents=0;fillColor=none;points=[[0,0.5],[1,0.5]];portConstraint=eastwest;top=0;left=0;right=0;bottom=1;" vertex="1" parent="kza9Rs9y_WehxQbTQ6U_-41">
          <mxGeometry y="30" width="150" height="30" as="geometry" />
        </mxCell>
        <mxCell id="kza9Rs9y_WehxQbTQ6U_-43" value="PK" style="shape=partialRectangle;overflow=hidden;connectable=0;fillColor=none;top=0;left=0;bottom=0;right=0;fontStyle=1;" vertex="1" parent="kza9Rs9y_WehxQbTQ6U_-42">
          <mxGeometry width="30" height="30" as="geometry">
            <mxRectangle width="30" height="30" as="alternateBounds" />
          </mxGeometry>
        </mxCell>
        <mxCell id="kza9Rs9y_WehxQbTQ6U_-44" value="id int NOT NULL " style="shape=partialRectangle;overflow=hidden;connectable=0;fillColor=none;top=0;left=0;bottom=0;right=0;align=left;spacingLeft=6;fontStyle=5;" vertex="1" parent="kza9Rs9y_WehxQbTQ6U_-42">
          <mxGeometry x="30" width="120" height="30" as="geometry">
            <mxRectangle width="120" height="30" as="alternateBounds" />
          </mxGeometry>
        </mxCell>
        <mxCell id="kza9Rs9y_WehxQbTQ6U_-45" value="" style="shape=partialRectangle;collapsible=0;dropTarget=0;pointerEvents=0;fillColor=none;points=[[0,0.5],[1,0.5]];portConstraint=eastwest;top=0;left=0;right=0;bottom=0;" vertex="1" parent="kza9Rs9y_WehxQbTQ6U_-41">
          <mxGeometry y="60" width="150" height="120" as="geometry" />
        </mxCell>
        <mxCell id="kza9Rs9y_WehxQbTQ6U_-46" value="" style="shape=partialRectangle;overflow=hidden;connectable=0;fillColor=none;top=0;left=0;bottom=0;right=0;" vertex="1" parent="kza9Rs9y_WehxQbTQ6U_-45">
          <mxGeometry width="30" height="120" as="geometry">
            <mxRectangle width="30" height="120" as="alternateBounds" />
          </mxGeometry>
        </mxCell>
        <mxCell id="kza9Rs9y_WehxQbTQ6U_-47" value="名称 char&#xa;类型 char&#xa;创建时间&#xa;更新时间" style="shape=partialRectangle;overflow=hidden;connectable=0;fillColor=none;top=0;left=0;bottom=0;right=0;align=left;spacingLeft=6;" vertex="1" parent="kza9Rs9y_WehxQbTQ6U_-45">
          <mxGeometry x="30" width="120" height="120" as="geometry">
            <mxRectangle width="120" height="120" as="alternateBounds" />
          </mxGeometry>
        </mxCell>
        <mxCell id="kza9Rs9y_WehxQbTQ6U_-55" value="会员资产" style="shape=table;startSize=30;container=1;collapsible=1;childLayout=tableLayout;fixedRows=1;rowLines=0;fontStyle=1;align=center;resizeLast=1;" vertex="1" parent="1">
          <mxGeometry x="940" y="630" width="170" height="170" as="geometry" />
        </mxCell>
        <mxCell id="kza9Rs9y_WehxQbTQ6U_-56" value="" style="shape=partialRectangle;collapsible=0;dropTarget=0;pointerEvents=0;fillColor=none;points=[[0,0.5],[1,0.5]];portConstraint=eastwest;top=0;left=0;right=0;bottom=1;" vertex="1" parent="kza9Rs9y_WehxQbTQ6U_-55">
          <mxGeometry y="30" width="170" height="20" as="geometry" />
        </mxCell>
        <mxCell id="kza9Rs9y_WehxQbTQ6U_-57" value="PK" style="shape=partialRectangle;overflow=hidden;connectable=0;fillColor=none;top=0;left=0;bottom=0;right=0;fontStyle=1;" vertex="1" parent="kza9Rs9y_WehxQbTQ6U_-56">
          <mxGeometry width="30" height="20" as="geometry">
            <mxRectangle width="30" height="20" as="alternateBounds" />
          </mxGeometry>
        </mxCell>
        <mxCell id="kza9Rs9y_WehxQbTQ6U_-58" value="id int NOT NULL " style="shape=partialRectangle;overflow=hidden;connectable=0;fillColor=none;top=0;left=0;bottom=0;right=0;align=left;spacingLeft=6;fontStyle=5;" vertex="1" parent="kza9Rs9y_WehxQbTQ6U_-56">
          <mxGeometry x="30" width="140" height="20" as="geometry">
            <mxRectangle width="140" height="20" as="alternateBounds" />
          </mxGeometry>
        </mxCell>
        <mxCell id="kza9Rs9y_WehxQbTQ6U_-59" value="" style="shape=partialRectangle;collapsible=0;dropTarget=0;pointerEvents=0;fillColor=none;points=[[0,0.5],[1,0.5]];portConstraint=eastwest;top=0;left=0;right=0;bottom=0;" vertex="1" parent="kza9Rs9y_WehxQbTQ6U_-55">
          <mxGeometry y="50" width="170" height="120" as="geometry" />
        </mxCell>
        <mxCell id="kza9Rs9y_WehxQbTQ6U_-60" value="" style="shape=partialRectangle;overflow=hidden;connectable=0;fillColor=none;top=0;left=0;bottom=0;right=0;" vertex="1" parent="kza9Rs9y_WehxQbTQ6U_-59">
          <mxGeometry width="30" height="120" as="geometry">
            <mxRectangle width="30" height="120" as="alternateBounds" />
          </mxGeometry>
        </mxCell>
        <mxCell id="kza9Rs9y_WehxQbTQ6U_-61" value="书籍编码&#xa;订单编码&#xa;创建时间 date" style="shape=partialRectangle;overflow=hidden;connectable=0;fillColor=none;top=0;left=0;bottom=0;right=0;align=left;spacingLeft=6;" vertex="1" parent="kza9Rs9y_WehxQbTQ6U_-59">
          <mxGeometry x="30" width="140" height="120" as="geometry">
            <mxRectangle width="140" height="120" as="alternateBounds" />
          </mxGeometry>
        </mxCell>
        <mxCell id="kza9Rs9y_WehxQbTQ6U_-66" value="订单" style="shape=table;startSize=30;container=1;collapsible=1;childLayout=tableLayout;fixedRows=1;rowLines=0;fontStyle=1;align=center;resizeLast=1;" vertex="1" parent="1">
          <mxGeometry x="594.75" y="700" width="150" height="170" as="geometry" />
        </mxCell>
        <mxCell id="kza9Rs9y_WehxQbTQ6U_-67" value="" style="shape=partialRectangle;collapsible=0;dropTarget=0;pointerEvents=0;fillColor=none;points=[[0,0.5],[1,0.5]];portConstraint=eastwest;top=0;left=0;right=0;bottom=1;" vertex="1" parent="kza9Rs9y_WehxQbTQ6U_-66">
          <mxGeometry y="30" width="150" height="20" as="geometry" />
        </mxCell>
        <mxCell id="kza9Rs9y_WehxQbTQ6U_-68" value="PK" style="shape=partialRectangle;overflow=hidden;connectable=0;fillColor=none;top=0;left=0;bottom=0;right=0;fontStyle=1;" vertex="1" parent="kza9Rs9y_WehxQbTQ6U_-67">
          <mxGeometry width="30" height="20" as="geometry">
            <mxRectangle width="30" height="20" as="alternateBounds" />
          </mxGeometry>
        </mxCell>
        <mxCell id="kza9Rs9y_WehxQbTQ6U_-69" value="id int NOT NULL " style="shape=partialRectangle;overflow=hidden;connectable=0;fillColor=none;top=0;left=0;bottom=0;right=0;align=left;spacingLeft=6;fontStyle=5;" vertex="1" parent="kza9Rs9y_WehxQbTQ6U_-67">
          <mxGeometry x="30" width="120" height="20" as="geometry">
            <mxRectangle width="120" height="20" as="alternateBounds" />
          </mxGeometry>
        </mxCell>
        <mxCell id="kza9Rs9y_WehxQbTQ6U_-70" value="" style="shape=partialRectangle;collapsible=0;dropTarget=0;pointerEvents=0;fillColor=none;points=[[0,0.5],[1,0.5]];portConstraint=eastwest;top=0;left=0;right=0;bottom=0;" vertex="1" parent="kza9Rs9y_WehxQbTQ6U_-66">
          <mxGeometry y="50" width="150" height="120" as="geometry" />
        </mxCell>
        <mxCell id="kza9Rs9y_WehxQbTQ6U_-71" value="" style="shape=partialRectangle;overflow=hidden;connectable=0;fillColor=none;top=0;left=0;bottom=0;right=0;" vertex="1" parent="kza9Rs9y_WehxQbTQ6U_-70">
          <mxGeometry width="30" height="120" as="geometry">
            <mxRectangle width="30" height="120" as="alternateBounds" />
          </mxGeometry>
        </mxCell>
        <mxCell id="kza9Rs9y_WehxQbTQ6U_-72" value="订单编码&#xa;商品编码&#xa;支付状态&#xa;订单时间 date&#xa;订单状态 char" style="shape=partialRectangle;overflow=hidden;connectable=0;fillColor=none;top=0;left=0;bottom=0;right=0;align=left;spacingLeft=6;" vertex="1" parent="kza9Rs9y_WehxQbTQ6U_-70">
          <mxGeometry x="30" width="120" height="120" as="geometry">
            <mxRectangle width="120" height="120" as="alternateBounds" />
          </mxGeometry>
        </mxCell>
        <mxCell id="kza9Rs9y_WehxQbTQ6U_-81" value="机构资产" style="shape=table;startSize=30;container=1;collapsible=1;childLayout=tableLayout;fixedRows=1;rowLines=0;fontStyle=1;align=center;resizeLast=1;" vertex="1" parent="1">
          <mxGeometry x="-210" y="1750" width="150" height="180" as="geometry" />
        </mxCell>
        <mxCell id="kza9Rs9y_WehxQbTQ6U_-82" value="" style="shape=partialRectangle;collapsible=0;dropTarget=0;pointerEvents=0;fillColor=none;points=[[0,0.5],[1,0.5]];portConstraint=eastwest;top=0;left=0;right=0;bottom=1;" vertex="1" parent="kza9Rs9y_WehxQbTQ6U_-81">
          <mxGeometry y="30" width="150" height="30" as="geometry" />
        </mxCell>
        <mxCell id="kza9Rs9y_WehxQbTQ6U_-83" value="PK" style="shape=partialRectangle;overflow=hidden;connectable=0;fillColor=none;top=0;left=0;bottom=0;right=0;fontStyle=1;" vertex="1" parent="kza9Rs9y_WehxQbTQ6U_-82">
          <mxGeometry width="30" height="30" as="geometry">
            <mxRectangle width="30" height="30" as="alternateBounds" />
          </mxGeometry>
        </mxCell>
        <mxCell id="kza9Rs9y_WehxQbTQ6U_-84" value="id int NOT NULL " style="shape=partialRectangle;overflow=hidden;connectable=0;fillColor=none;top=0;left=0;bottom=0;right=0;align=left;spacingLeft=6;fontStyle=5;" vertex="1" parent="kza9Rs9y_WehxQbTQ6U_-82">
          <mxGeometry x="30" width="120" height="30" as="geometry">
            <mxRectangle width="120" height="30" as="alternateBounds" />
          </mxGeometry>
        </mxCell>
        <mxCell id="kza9Rs9y_WehxQbTQ6U_-85" value="" style="shape=partialRectangle;collapsible=0;dropTarget=0;pointerEvents=0;fillColor=none;points=[[0,0.5],[1,0.5]];portConstraint=eastwest;top=0;left=0;right=0;bottom=0;" vertex="1" parent="kza9Rs9y_WehxQbTQ6U_-81">
          <mxGeometry y="60" width="150" height="120" as="geometry" />
        </mxCell>
        <mxCell id="kza9Rs9y_WehxQbTQ6U_-86" value="" style="shape=partialRectangle;overflow=hidden;connectable=0;fillColor=none;top=0;left=0;bottom=0;right=0;" vertex="1" parent="kza9Rs9y_WehxQbTQ6U_-85">
          <mxGeometry width="30" height="120" as="geometry">
            <mxRectangle width="30" height="120" as="alternateBounds" />
          </mxGeometry>
        </mxCell>
        <mxCell id="kza9Rs9y_WehxQbTQ6U_-87" value="类型  char&#xa;购买内容ID int&#xa;购买时间 date" style="shape=partialRectangle;overflow=hidden;connectable=0;fillColor=none;top=0;left=0;bottom=0;right=0;align=left;spacingLeft=6;" vertex="1" parent="kza9Rs9y_WehxQbTQ6U_-85">
          <mxGeometry x="30" width="120" height="120" as="geometry">
            <mxRectangle width="120" height="120" as="alternateBounds" />
          </mxGeometry>
        </mxCell>
        <mxCell id="kza9Rs9y_WehxQbTQ6U_-89" value="" style="edgeStyle=entityRelationEdgeStyle;fontSize=12;html=1;endArrow=ERoneToMany;startArrow=ERmandOne;rounded=0;" edge="1" parent="1" source="kza9Rs9y_WehxQbTQ6U_-45" target="kza9Rs9y_WehxQbTQ6U_-85">
          <mxGeometry width="100" height="100" relative="1" as="geometry">
            <mxPoint x="-550" y="1520" as="sourcePoint" />
            <mxPoint x="-320" y="1615" as="targetPoint" />
          </mxGeometry>
        </mxCell>
        <mxCell id="kza9Rs9y_WehxQbTQ6U_-112" value="支付订单" style="shape=table;startSize=30;container=1;collapsible=1;childLayout=tableLayout;fixedRows=1;rowLines=0;fontStyle=1;align=center;resizeLast=1;" vertex="1" parent="1">
          <mxGeometry x="70" y="1510" width="150" height="170" as="geometry" />
        </mxCell>
        <mxCell id="kza9Rs9y_WehxQbTQ6U_-113" value="" style="shape=partialRectangle;collapsible=0;dropTarget=0;pointerEvents=0;fillColor=none;points=[[0,0.5],[1,0.5]];portConstraint=eastwest;top=0;left=0;right=0;bottom=1;" vertex="1" parent="kza9Rs9y_WehxQbTQ6U_-112">
          <mxGeometry y="30" width="150" height="20" as="geometry" />
        </mxCell>
        <mxCell id="kza9Rs9y_WehxQbTQ6U_-114" value="PK" style="shape=partialRectangle;overflow=hidden;connectable=0;fillColor=none;top=0;left=0;bottom=0;right=0;fontStyle=1;" vertex="1" parent="kza9Rs9y_WehxQbTQ6U_-113">
          <mxGeometry width="30" height="20" as="geometry">
            <mxRectangle width="30" height="20" as="alternateBounds" />
          </mxGeometry>
        </mxCell>
        <mxCell id="kza9Rs9y_WehxQbTQ6U_-115" value="id int NOT NULL " style="shape=partialRectangle;overflow=hidden;connectable=0;fillColor=none;top=0;left=0;bottom=0;right=0;align=left;spacingLeft=6;fontStyle=5;" vertex="1" parent="kza9Rs9y_WehxQbTQ6U_-113">
          <mxGeometry x="30" width="120" height="20" as="geometry">
            <mxRectangle width="120" height="20" as="alternateBounds" />
          </mxGeometry>
        </mxCell>
        <mxCell id="kza9Rs9y_WehxQbTQ6U_-116" value="" style="shape=partialRectangle;collapsible=0;dropTarget=0;pointerEvents=0;fillColor=none;points=[[0,0.5],[1,0.5]];portConstraint=eastwest;top=0;left=0;right=0;bottom=0;" vertex="1" parent="kza9Rs9y_WehxQbTQ6U_-112">
          <mxGeometry y="50" width="150" height="120" as="geometry" />
        </mxCell>
        <mxCell id="kza9Rs9y_WehxQbTQ6U_-117" value="" style="shape=partialRectangle;overflow=hidden;connectable=0;fillColor=none;top=0;left=0;bottom=0;right=0;" vertex="1" parent="kza9Rs9y_WehxQbTQ6U_-116">
          <mxGeometry width="30" height="120" as="geometry">
            <mxRectangle width="30" height="120" as="alternateBounds" />
          </mxGeometry>
        </mxCell>
        <mxCell id="kza9Rs9y_WehxQbTQ6U_-118" value="" style="shape=partialRectangle;overflow=hidden;connectable=0;fillColor=none;top=0;left=0;bottom=0;right=0;align=left;spacingLeft=6;" vertex="1" parent="kza9Rs9y_WehxQbTQ6U_-116">
          <mxGeometry x="30" width="120" height="120" as="geometry">
            <mxRectangle width="120" height="120" as="alternateBounds" />
          </mxGeometry>
        </mxCell>
        <mxCell id="kza9Rs9y_WehxQbTQ6U_-119" value="" style="edgeStyle=entityRelationEdgeStyle;fontSize=12;html=1;endArrow=ERzeroToMany;startArrow=ERzeroToOne;rounded=0;entryX=0;entryY=0.5;entryDx=0;entryDy=0;exitX=1.044;exitY=-0.035;exitDx=0;exitDy=0;exitPerimeter=0;" edge="1" parent="1" source="kza9Rs9y_WehxQbTQ6U_-130" target="kza9Rs9y_WehxQbTQ6U_-116">
          <mxGeometry width="100" height="100" relative="1" as="geometry">
            <mxPoint x="-30" y="1530" as="sourcePoint" />
            <mxPoint x="70" y="1430" as="targetPoint" />
          </mxGeometry>
        </mxCell>
        <mxCell id="kza9Rs9y_WehxQbTQ6U_-123" value="支付" style="edgeLabel;html=1;align=center;verticalAlign=middle;resizable=0;points=[];" vertex="1" connectable="0" parent="kza9Rs9y_WehxQbTQ6U_-119">
          <mxGeometry x="-0.0183" y="-1" relative="1" as="geometry">
            <mxPoint as="offset" />
          </mxGeometry>
        </mxCell>
        <mxCell id="kza9Rs9y_WehxQbTQ6U_-120" value="" style="edgeStyle=entityRelationEdgeStyle;fontSize=12;html=1;endArrow=ERoneToMany;startArrow=ERmandOne;rounded=0;entryX=0.039;entryY=-0.035;entryDx=0;entryDy=0;entryPerimeter=0;" edge="1" parent="1" target="kza9Rs9y_WehxQbTQ6U_-130">
          <mxGeometry width="100" height="100" relative="1" as="geometry">
            <mxPoint x="-400" y="1663" as="sourcePoint" />
            <mxPoint x="-240" y="1490" as="targetPoint" />
          </mxGeometry>
        </mxCell>
        <mxCell id="kza9Rs9y_WehxQbTQ6U_-122" value="购买" style="edgeLabel;html=1;align=center;verticalAlign=middle;resizable=0;points=[];" vertex="1" connectable="0" parent="kza9Rs9y_WehxQbTQ6U_-120">
          <mxGeometry x="-0.0567" y="3" relative="1" as="geometry">
            <mxPoint as="offset" />
          </mxGeometry>
        </mxCell>
        <mxCell id="kza9Rs9y_WehxQbTQ6U_-126" value="订单" style="shape=table;startSize=30;container=1;collapsible=1;childLayout=tableLayout;fixedRows=1;rowLines=0;fontStyle=1;align=center;resizeLast=1;" vertex="1" parent="1">
          <mxGeometry x="-260" y="1490" width="150" height="180" as="geometry" />
        </mxCell>
        <mxCell id="kza9Rs9y_WehxQbTQ6U_-127" value="" style="shape=partialRectangle;collapsible=0;dropTarget=0;pointerEvents=0;fillColor=none;points=[[0,0.5],[1,0.5]];portConstraint=eastwest;top=0;left=0;right=0;bottom=1;" vertex="1" parent="kza9Rs9y_WehxQbTQ6U_-126">
          <mxGeometry y="30" width="150" height="30" as="geometry" />
        </mxCell>
        <mxCell id="kza9Rs9y_WehxQbTQ6U_-128" value="PK" style="shape=partialRectangle;overflow=hidden;connectable=0;fillColor=none;top=0;left=0;bottom=0;right=0;fontStyle=1;" vertex="1" parent="kza9Rs9y_WehxQbTQ6U_-127">
          <mxGeometry width="30" height="30" as="geometry">
            <mxRectangle width="30" height="30" as="alternateBounds" />
          </mxGeometry>
        </mxCell>
        <mxCell id="kza9Rs9y_WehxQbTQ6U_-129" value="id int NOT NULL " style="shape=partialRectangle;overflow=hidden;connectable=0;fillColor=none;top=0;left=0;bottom=0;right=0;align=left;spacingLeft=6;fontStyle=5;" vertex="1" parent="kza9Rs9y_WehxQbTQ6U_-127">
          <mxGeometry x="30" width="120" height="30" as="geometry">
            <mxRectangle width="120" height="30" as="alternateBounds" />
          </mxGeometry>
        </mxCell>
        <mxCell id="kza9Rs9y_WehxQbTQ6U_-130" value="" style="shape=partialRectangle;collapsible=0;dropTarget=0;pointerEvents=0;fillColor=none;points=[[0,0.5],[1,0.5]];portConstraint=eastwest;top=0;left=0;right=0;bottom=0;" vertex="1" parent="kza9Rs9y_WehxQbTQ6U_-126">
          <mxGeometry y="60" width="150" height="120" as="geometry" />
        </mxCell>
        <mxCell id="kza9Rs9y_WehxQbTQ6U_-131" value="" style="shape=partialRectangle;overflow=hidden;connectable=0;fillColor=none;top=0;left=0;bottom=0;right=0;" vertex="1" parent="kza9Rs9y_WehxQbTQ6U_-130">
          <mxGeometry width="30" height="120" as="geometry">
            <mxRectangle width="30" height="120" as="alternateBounds" />
          </mxGeometry>
        </mxCell>
        <mxCell id="kza9Rs9y_WehxQbTQ6U_-132" value="订单购买类型 char&#xa;购买内容ID  int&#xa;订单时间 date&#xa;订单状态 char" style="shape=partialRectangle;overflow=hidden;connectable=0;fillColor=none;top=0;left=0;bottom=0;right=0;align=left;spacingLeft=6;" vertex="1" parent="kza9Rs9y_WehxQbTQ6U_-130">
          <mxGeometry x="30" width="120" height="120" as="geometry">
            <mxRectangle width="120" height="120" as="alternateBounds" />
          </mxGeometry>
        </mxCell>
        <mxCell id="kza9Rs9y_WehxQbTQ6U_-133" value="内容评论" style="shape=table;startSize=30;container=1;collapsible=1;childLayout=tableLayout;fixedRows=1;rowLines=0;fontStyle=1;align=center;resizeLast=1;" vertex="1" parent="1">
          <mxGeometry x="330" y="-550" width="200" height="140" as="geometry" />
        </mxCell>
        <mxCell id="kza9Rs9y_WehxQbTQ6U_-134" value="" style="shape=partialRectangle;collapsible=0;dropTarget=0;pointerEvents=0;fillColor=none;points=[[0,0.5],[1,0.5]];portConstraint=eastwest;top=0;left=0;right=0;bottom=1;" vertex="1" parent="kza9Rs9y_WehxQbTQ6U_-133">
          <mxGeometry y="30" width="200" height="20" as="geometry" />
        </mxCell>
        <mxCell id="kza9Rs9y_WehxQbTQ6U_-135" value="PK" style="shape=partialRectangle;overflow=hidden;connectable=0;fillColor=none;top=0;left=0;bottom=0;right=0;fontStyle=1;" vertex="1" parent="kza9Rs9y_WehxQbTQ6U_-134">
          <mxGeometry width="29.999999999999545" height="20" as="geometry">
            <mxRectangle width="29.999999999999545" height="20" as="alternateBounds" />
          </mxGeometry>
        </mxCell>
        <mxCell id="kza9Rs9y_WehxQbTQ6U_-136" value="id int NOT NULL " style="shape=partialRectangle;overflow=hidden;connectable=0;fillColor=none;top=0;left=0;bottom=0;right=0;align=left;spacingLeft=6;fontStyle=5;" vertex="1" parent="kza9Rs9y_WehxQbTQ6U_-134">
          <mxGeometry x="29.999999999999545" width="170.00000000000045" height="20" as="geometry">
            <mxRectangle width="170.00000000000045" height="20" as="alternateBounds" />
          </mxGeometry>
        </mxCell>
        <mxCell id="kza9Rs9y_WehxQbTQ6U_-137" value="" style="shape=partialRectangle;collapsible=0;dropTarget=0;pointerEvents=0;fillColor=none;points=[[0,0.5],[1,0.5]];portConstraint=eastwest;top=0;left=0;right=0;bottom=0;" vertex="1" parent="kza9Rs9y_WehxQbTQ6U_-133">
          <mxGeometry y="50" width="200" height="90" as="geometry" />
        </mxCell>
        <mxCell id="kza9Rs9y_WehxQbTQ6U_-138" value="" style="shape=partialRectangle;overflow=hidden;connectable=0;fillColor=none;top=0;left=0;bottom=0;right=0;" vertex="1" parent="kza9Rs9y_WehxQbTQ6U_-137">
          <mxGeometry width="29.999999999999545" height="90" as="geometry">
            <mxRectangle width="29.999999999999545" height="90" as="alternateBounds" />
          </mxGeometry>
        </mxCell>
        <mxCell id="kza9Rs9y_WehxQbTQ6U_-139" value="内容ID int&#xa;会员ID int&#xa;评论内容 char&#xa;创建时间 date&#xa;" style="shape=partialRectangle;overflow=hidden;connectable=0;fillColor=none;top=0;left=0;bottom=0;right=0;align=left;spacingLeft=6;" vertex="1" parent="kza9Rs9y_WehxQbTQ6U_-137">
          <mxGeometry x="29.999999999999545" width="170.00000000000045" height="90" as="geometry">
            <mxRectangle width="170.00000000000045" height="90" as="alternateBounds" />
          </mxGeometry>
        </mxCell>
        <mxCell id="kza9Rs9y_WehxQbTQ6U_-140" value="" style="edgeStyle=entityRelationEdgeStyle;endArrow=ERzeroToMany;startArrow=ERone;endFill=1;startFill=0;entryX=0;entryY=0.5;entryDx=0;entryDy=0;exitX=1;exitY=0.5;exitDx=0;exitDy=0;" edge="1" parent="1" source="C-vyLk0tnHw3VtMMgP7b-24" target="kza9Rs9y_WehxQbTQ6U_-137">
          <mxGeometry width="100" height="100" relative="1" as="geometry">
            <mxPoint x="42" y="-117" as="sourcePoint" />
            <mxPoint x="362" y="-117" as="targetPoint" />
          </mxGeometry>
        </mxCell>
        <mxCell id="kza9Rs9y_WehxQbTQ6U_-141" value="用户评论" style="edgeLabel;html=1;align=center;verticalAlign=middle;resizable=0;points=[];" vertex="1" connectable="0" parent="kza9Rs9y_WehxQbTQ6U_-140">
          <mxGeometry x="0.0441" y="-1" relative="1" as="geometry">
            <mxPoint as="offset" />
          </mxGeometry>
        </mxCell>
        <mxCell id="kza9Rs9y_WehxQbTQ6U_-142" value="" style="edgeStyle=entityRelationEdgeStyle;endArrow=ERzeroToMany;startArrow=ERone;endFill=1;startFill=0;entryX=-0.009;entryY=0.253;entryDx=0;entryDy=0;entryPerimeter=0;exitX=1;exitY=0.5;exitDx=0;exitDy=0;" edge="1" parent="1" source="kza9Rs9y_WehxQbTQ6U_-154" target="kza9Rs9y_WehxQbTQ6U_-137">
          <mxGeometry width="100" height="100" relative="1" as="geometry">
            <mxPoint x="49.999999999999545" y="-630" as="sourcePoint" />
            <mxPoint x="310" y="-355" as="targetPoint" />
          </mxGeometry>
        </mxCell>
        <mxCell id="kza9Rs9y_WehxQbTQ6U_-143" value="评论" style="edgeLabel;html=1;align=center;verticalAlign=middle;resizable=0;points=[];" vertex="1" connectable="0" parent="kza9Rs9y_WehxQbTQ6U_-142">
          <mxGeometry x="0.0441" y="-1" relative="1" as="geometry">
            <mxPoint as="offset" />
          </mxGeometry>
        </mxCell>
        <mxCell id="kza9Rs9y_WehxQbTQ6U_-152" value="&lt;h1&gt;tag标签规则如下：&lt;/h1&gt;&lt;div&gt;&lt;font style=&quot;font-size: 8px;&quot;&gt;{&lt;/font&gt;&lt;/div&gt;&lt;div&gt;&lt;font size=&quot;3&quot;&gt;&quot;grade&quot;:&quot;1年级&quot;,&lt;/font&gt;&lt;/div&gt;&lt;font size=&quot;3&quot;&gt;&quot;theme&quot;:&quot;读者推荐/自然&quot;,&lt;br&gt;&quot;format&quot;:“诵读/听”，&lt;br&gt;“&quot;classification&quot;:&quot;传统文化/文言文&quot;&lt;br&gt;&lt;/font&gt;&lt;div&gt;&lt;span style=&quot;background-color: initial;&quot;&gt;&lt;font size=&quot;3&quot;&gt;}&lt;/font&gt;&lt;/span&gt;&lt;br&gt;&lt;/div&gt;" style="text;html=1;strokeColor=none;fillColor=none;spacing=5;spacingTop=-20;whiteSpace=wrap;overflow=hidden;rounded=0;" vertex="1" parent="1">
          <mxGeometry x="-460" y="-350" width="260" height="200" as="geometry" />
        </mxCell>
        <mxCell id="kza9Rs9y_WehxQbTQ6U_-153" value="会员" style="shape=table;startSize=30;container=1;collapsible=1;childLayout=tableLayout;fixedRows=1;rowLines=0;fontStyle=1;align=center;resizeLast=1;" vertex="1" parent="1">
          <mxGeometry x="-140" y="-660" width="170" height="110" as="geometry" />
        </mxCell>
        <mxCell id="kza9Rs9y_WehxQbTQ6U_-154" value="" style="shape=partialRectangle;collapsible=0;dropTarget=0;pointerEvents=0;fillColor=none;points=[[0,0.5],[1,0.5]];portConstraint=eastwest;top=0;left=0;right=0;bottom=1;" vertex="1" parent="kza9Rs9y_WehxQbTQ6U_-153">
          <mxGeometry y="30" width="170" height="30" as="geometry" />
        </mxCell>
        <mxCell id="kza9Rs9y_WehxQbTQ6U_-155" value="PK" style="shape=partialRectangle;overflow=hidden;connectable=0;fillColor=none;top=0;left=0;bottom=0;right=0;fontStyle=1;" vertex="1" parent="kza9Rs9y_WehxQbTQ6U_-154">
          <mxGeometry width="30" height="30" as="geometry">
            <mxRectangle width="30" height="30" as="alternateBounds" />
          </mxGeometry>
        </mxCell>
        <mxCell id="kza9Rs9y_WehxQbTQ6U_-156" value="id int NOT NULL " style="shape=partialRectangle;overflow=hidden;connectable=0;fillColor=none;top=0;left=0;bottom=0;right=0;align=left;spacingLeft=6;fontStyle=5;" vertex="1" parent="kza9Rs9y_WehxQbTQ6U_-154">
          <mxGeometry x="30" width="140" height="30" as="geometry">
            <mxRectangle width="140" height="30" as="alternateBounds" />
          </mxGeometry>
        </mxCell>
        <mxCell id="kza9Rs9y_WehxQbTQ6U_-157" value="" style="shape=partialRectangle;collapsible=0;dropTarget=0;pointerEvents=0;fillColor=none;points=[[0,0.5],[1,0.5]];portConstraint=eastwest;top=0;left=0;right=0;bottom=0;" vertex="1" parent="kza9Rs9y_WehxQbTQ6U_-153">
          <mxGeometry y="60" width="170" height="30" as="geometry" />
        </mxCell>
        <mxCell id="kza9Rs9y_WehxQbTQ6U_-158" value="" style="shape=partialRectangle;overflow=hidden;connectable=0;fillColor=none;top=0;left=0;bottom=0;right=0;" vertex="1" parent="kza9Rs9y_WehxQbTQ6U_-157">
          <mxGeometry width="30" height="30" as="geometry">
            <mxRectangle width="30" height="30" as="alternateBounds" />
          </mxGeometry>
        </mxCell>
        <mxCell id="kza9Rs9y_WehxQbTQ6U_-159" value="" style="shape=partialRectangle;overflow=hidden;connectable=0;fillColor=none;top=0;left=0;bottom=0;right=0;align=left;spacingLeft=6;" vertex="1" parent="kza9Rs9y_WehxQbTQ6U_-157">
          <mxGeometry x="30" width="140" height="30" as="geometry">
            <mxRectangle width="140" height="30" as="alternateBounds" />
          </mxGeometry>
        </mxCell>
        <mxCell id="kza9Rs9y_WehxQbTQ6U_-160" value="" style="shape=partialRectangle;collapsible=0;dropTarget=0;pointerEvents=0;fillColor=none;points=[[0,0.5],[1,0.5]];portConstraint=eastwest;top=0;left=0;right=0;bottom=0;" vertex="1" parent="kza9Rs9y_WehxQbTQ6U_-153">
          <mxGeometry y="90" width="170" height="20" as="geometry" />
        </mxCell>
        <mxCell id="kza9Rs9y_WehxQbTQ6U_-161" value="" style="shape=partialRectangle;overflow=hidden;connectable=0;fillColor=none;top=0;left=0;bottom=0;right=0;" vertex="1" parent="kza9Rs9y_WehxQbTQ6U_-160">
          <mxGeometry width="30" height="20" as="geometry">
            <mxRectangle width="30" height="20" as="alternateBounds" />
          </mxGeometry>
        </mxCell>
        <mxCell id="kza9Rs9y_WehxQbTQ6U_-162" value="" style="shape=partialRectangle;overflow=hidden;connectable=0;fillColor=none;top=0;left=0;bottom=0;right=0;align=left;spacingLeft=6;" vertex="1" parent="kza9Rs9y_WehxQbTQ6U_-160">
          <mxGeometry x="30" width="140" height="20" as="geometry">
            <mxRectangle width="140" height="20" as="alternateBounds" />
          </mxGeometry>
        </mxCell>
        <mxCell id="kza9Rs9y_WehxQbTQ6U_-163" value="横幅Banner&#xa;" style="shape=table;startSize=30;container=1;collapsible=1;childLayout=tableLayout;fixedRows=1;rowLines=0;fontStyle=1;align=center;resizeLast=1;" vertex="1" parent="1">
          <mxGeometry x="262" y="1340" width="225" height="180" as="geometry" />
        </mxCell>
        <mxCell id="kza9Rs9y_WehxQbTQ6U_-164" value="" style="shape=partialRectangle;collapsible=0;dropTarget=0;pointerEvents=0;fillColor=none;points=[[0,0.5],[1,0.5]];portConstraint=eastwest;top=0;left=0;right=0;bottom=1;" vertex="1" parent="kza9Rs9y_WehxQbTQ6U_-163">
          <mxGeometry y="30" width="225" height="30" as="geometry" />
        </mxCell>
        <mxCell id="kza9Rs9y_WehxQbTQ6U_-165" value="PK" style="shape=partialRectangle;overflow=hidden;connectable=0;fillColor=none;top=0;left=0;bottom=0;right=0;fontStyle=1;" vertex="1" parent="kza9Rs9y_WehxQbTQ6U_-164">
          <mxGeometry width="30" height="30" as="geometry">
            <mxRectangle width="30" height="30" as="alternateBounds" />
          </mxGeometry>
        </mxCell>
        <mxCell id="kza9Rs9y_WehxQbTQ6U_-166" value="id int NOT NULL " style="shape=partialRectangle;overflow=hidden;connectable=0;fillColor=none;top=0;left=0;bottom=0;right=0;align=left;spacingLeft=6;fontStyle=5;" vertex="1" parent="kza9Rs9y_WehxQbTQ6U_-164">
          <mxGeometry x="30" width="195" height="30" as="geometry">
            <mxRectangle width="195" height="30" as="alternateBounds" />
          </mxGeometry>
        </mxCell>
        <mxCell id="kza9Rs9y_WehxQbTQ6U_-167" value="" style="shape=partialRectangle;collapsible=0;dropTarget=0;pointerEvents=0;fillColor=none;points=[[0,0.5],[1,0.5]];portConstraint=eastwest;top=0;left=0;right=0;bottom=0;" vertex="1" parent="kza9Rs9y_WehxQbTQ6U_-163">
          <mxGeometry y="60" width="225" height="120" as="geometry" />
        </mxCell>
        <mxCell id="kza9Rs9y_WehxQbTQ6U_-168" value="" style="shape=partialRectangle;overflow=hidden;connectable=0;fillColor=none;top=0;left=0;bottom=0;right=0;" vertex="1" parent="kza9Rs9y_WehxQbTQ6U_-167">
          <mxGeometry width="30" height="120" as="geometry">
            <mxRectangle width="30" height="120" as="alternateBounds" />
          </mxGeometry>
        </mxCell>
        <mxCell id="kza9Rs9y_WehxQbTQ6U_-169" value="位置&#xa;数量&#xa;获取方式:【随机、权重】&#xa;创建时间&#xa;修改时间" style="shape=partialRectangle;overflow=hidden;connectable=0;fillColor=none;top=0;left=0;bottom=0;right=0;align=left;spacingLeft=6;" vertex="1" parent="kza9Rs9y_WehxQbTQ6U_-167">
          <mxGeometry x="30" width="195" height="120" as="geometry">
            <mxRectangle width="195" height="120" as="alternateBounds" />
          </mxGeometry>
        </mxCell>
        <mxCell id="kza9Rs9y_WehxQbTQ6U_-170" value="Banner明细" style="shape=table;startSize=30;container=1;collapsible=1;childLayout=tableLayout;fixedRows=1;rowLines=0;fontStyle=1;align=center;resizeLast=1;" vertex="1" parent="1">
          <mxGeometry x="695" y="1350" width="225" height="180" as="geometry" />
        </mxCell>
        <mxCell id="kza9Rs9y_WehxQbTQ6U_-171" value="" style="shape=partialRectangle;collapsible=0;dropTarget=0;pointerEvents=0;fillColor=none;points=[[0,0.5],[1,0.5]];portConstraint=eastwest;top=0;left=0;right=0;bottom=1;" vertex="1" parent="kza9Rs9y_WehxQbTQ6U_-170">
          <mxGeometry y="30" width="225" height="30" as="geometry" />
        </mxCell>
        <mxCell id="kza9Rs9y_WehxQbTQ6U_-172" value="PK" style="shape=partialRectangle;overflow=hidden;connectable=0;fillColor=none;top=0;left=0;bottom=0;right=0;fontStyle=1;" vertex="1" parent="kza9Rs9y_WehxQbTQ6U_-171">
          <mxGeometry width="30" height="30" as="geometry">
            <mxRectangle width="30" height="30" as="alternateBounds" />
          </mxGeometry>
        </mxCell>
        <mxCell id="kza9Rs9y_WehxQbTQ6U_-173" value="id int NOT NULL " style="shape=partialRectangle;overflow=hidden;connectable=0;fillColor=none;top=0;left=0;bottom=0;right=0;align=left;spacingLeft=6;fontStyle=5;" vertex="1" parent="kza9Rs9y_WehxQbTQ6U_-171">
          <mxGeometry x="30" width="195" height="30" as="geometry">
            <mxRectangle width="195" height="30" as="alternateBounds" />
          </mxGeometry>
        </mxCell>
        <mxCell id="kza9Rs9y_WehxQbTQ6U_-174" value="" style="shape=partialRectangle;collapsible=0;dropTarget=0;pointerEvents=0;fillColor=none;points=[[0,0.5],[1,0.5]];portConstraint=eastwest;top=0;left=0;right=0;bottom=0;" vertex="1" parent="kza9Rs9y_WehxQbTQ6U_-170">
          <mxGeometry y="60" width="225" height="120" as="geometry" />
        </mxCell>
        <mxCell id="kza9Rs9y_WehxQbTQ6U_-175" value="" style="shape=partialRectangle;overflow=hidden;connectable=0;fillColor=none;top=0;left=0;bottom=0;right=0;" vertex="1" parent="kza9Rs9y_WehxQbTQ6U_-174">
          <mxGeometry width="30" height="120" as="geometry">
            <mxRectangle width="30" height="120" as="alternateBounds" />
          </mxGeometry>
        </mxCell>
        <mxCell id="kza9Rs9y_WehxQbTQ6U_-176" value="图片地址&#xa;链接地址&#xa;权重&#xa;状态&#xa;创建时间&#xa;修改时间" style="shape=partialRectangle;overflow=hidden;connectable=0;fillColor=none;top=0;left=0;bottom=0;right=0;align=left;spacingLeft=6;" vertex="1" parent="kza9Rs9y_WehxQbTQ6U_-174">
          <mxGeometry x="30" width="195" height="120" as="geometry">
            <mxRectangle width="195" height="120" as="alternateBounds" />
          </mxGeometry>
        </mxCell>
        <mxCell id="kza9Rs9y_WehxQbTQ6U_-177" value="" style="edgeStyle=entityRelationEdgeStyle;fontSize=12;html=1;endArrow=ERzeroToMany;startArrow=ERmandOne;rounded=0;exitX=1;exitY=0.5;exitDx=0;exitDy=0;entryX=-0.001;entryY=0.299;entryDx=0;entryDy=0;entryPerimeter=0;" edge="1" parent="1" source="kza9Rs9y_WehxQbTQ6U_-167" target="kza9Rs9y_WehxQbTQ6U_-174">
          <mxGeometry width="100" height="100" relative="1" as="geometry">
            <mxPoint x="524.5" y="1480" as="sourcePoint" />
            <mxPoint x="624.5" y="1380" as="targetPoint" />
          </mxGeometry>
        </mxCell>
        <mxCell id="kza9Rs9y_WehxQbTQ6U_-178" value="" style="shape=partialRectangle;overflow=hidden;connectable=0;fillColor=none;top=0;left=0;bottom=0;right=0;" vertex="1" parent="1">
          <mxGeometry x="339.5" y="1230" width="30" height="120" as="geometry">
            <mxRectangle width="30" height="120" as="alternateBounds" />
          </mxGeometry>
        </mxCell>
        <mxCell id="kza9Rs9y_WehxQbTQ6U_-186" value="会员" style="shape=table;startSize=30;container=1;collapsible=1;childLayout=tableLayout;fixedRows=1;rowLines=0;fontStyle=1;align=center;resizeLast=1;" vertex="1" parent="1">
          <mxGeometry x="210" y="720" width="170" height="110" as="geometry" />
        </mxCell>
        <mxCell id="kza9Rs9y_WehxQbTQ6U_-187" value="" style="shape=partialRectangle;collapsible=0;dropTarget=0;pointerEvents=0;fillColor=none;points=[[0,0.5],[1,0.5]];portConstraint=eastwest;top=0;left=0;right=0;bottom=1;" vertex="1" parent="kza9Rs9y_WehxQbTQ6U_-186">
          <mxGeometry y="30" width="170" height="30" as="geometry" />
        </mxCell>
        <mxCell id="kza9Rs9y_WehxQbTQ6U_-188" value="PK" style="shape=partialRectangle;overflow=hidden;connectable=0;fillColor=none;top=0;left=0;bottom=0;right=0;fontStyle=1;" vertex="1" parent="kza9Rs9y_WehxQbTQ6U_-187">
          <mxGeometry width="30" height="30" as="geometry">
            <mxRectangle width="30" height="30" as="alternateBounds" />
          </mxGeometry>
        </mxCell>
        <mxCell id="kza9Rs9y_WehxQbTQ6U_-189" value="id int NOT NULL " style="shape=partialRectangle;overflow=hidden;connectable=0;fillColor=none;top=0;left=0;bottom=0;right=0;align=left;spacingLeft=6;fontStyle=5;" vertex="1" parent="kza9Rs9y_WehxQbTQ6U_-187">
          <mxGeometry x="30" width="140" height="30" as="geometry">
            <mxRectangle width="140" height="30" as="alternateBounds" />
          </mxGeometry>
        </mxCell>
        <mxCell id="kza9Rs9y_WehxQbTQ6U_-190" value="" style="shape=partialRectangle;collapsible=0;dropTarget=0;pointerEvents=0;fillColor=none;points=[[0,0.5],[1,0.5]];portConstraint=eastwest;top=0;left=0;right=0;bottom=0;" vertex="1" parent="kza9Rs9y_WehxQbTQ6U_-186">
          <mxGeometry y="60" width="170" height="30" as="geometry" />
        </mxCell>
        <mxCell id="kza9Rs9y_WehxQbTQ6U_-191" value="" style="shape=partialRectangle;overflow=hidden;connectable=0;fillColor=none;top=0;left=0;bottom=0;right=0;" vertex="1" parent="kza9Rs9y_WehxQbTQ6U_-190">
          <mxGeometry width="30" height="30" as="geometry">
            <mxRectangle width="30" height="30" as="alternateBounds" />
          </mxGeometry>
        </mxCell>
        <mxCell id="kza9Rs9y_WehxQbTQ6U_-192" value="" style="shape=partialRectangle;overflow=hidden;connectable=0;fillColor=none;top=0;left=0;bottom=0;right=0;align=left;spacingLeft=6;" vertex="1" parent="kza9Rs9y_WehxQbTQ6U_-190">
          <mxGeometry x="30" width="140" height="30" as="geometry">
            <mxRectangle width="140" height="30" as="alternateBounds" />
          </mxGeometry>
        </mxCell>
        <mxCell id="kza9Rs9y_WehxQbTQ6U_-193" value="" style="shape=partialRectangle;collapsible=0;dropTarget=0;pointerEvents=0;fillColor=none;points=[[0,0.5],[1,0.5]];portConstraint=eastwest;top=0;left=0;right=0;bottom=0;" vertex="1" parent="kza9Rs9y_WehxQbTQ6U_-186">
          <mxGeometry y="90" width="170" height="20" as="geometry" />
        </mxCell>
        <mxCell id="kza9Rs9y_WehxQbTQ6U_-194" value="" style="shape=partialRectangle;overflow=hidden;connectable=0;fillColor=none;top=0;left=0;bottom=0;right=0;" vertex="1" parent="kza9Rs9y_WehxQbTQ6U_-193">
          <mxGeometry width="30" height="20" as="geometry">
            <mxRectangle width="30" height="20" as="alternateBounds" />
          </mxGeometry>
        </mxCell>
        <mxCell id="kza9Rs9y_WehxQbTQ6U_-195" value="" style="shape=partialRectangle;overflow=hidden;connectable=0;fillColor=none;top=0;left=0;bottom=0;right=0;align=left;spacingLeft=6;" vertex="1" parent="kza9Rs9y_WehxQbTQ6U_-193">
          <mxGeometry x="30" width="140" height="20" as="geometry">
            <mxRectangle width="140" height="20" as="alternateBounds" />
          </mxGeometry>
        </mxCell>
        <mxCell id="kza9Rs9y_WehxQbTQ6U_-196" value="" style="edgeStyle=entityRelationEdgeStyle;fontSize=12;html=1;endArrow=ERoneToMany;startArrow=ERmandOne;rounded=0;entryX=-0.017;entryY=0.183;entryDx=0;entryDy=0;entryPerimeter=0;exitX=1;exitY=0.5;exitDx=0;exitDy=0;" edge="1" parent="1" source="kza9Rs9y_WehxQbTQ6U_-187" target="kza9Rs9y_WehxQbTQ6U_-70">
          <mxGeometry width="100" height="100" relative="1" as="geometry">
            <mxPoint x="350" y="780" as="sourcePoint" />
            <mxPoint x="450" y="680" as="targetPoint" />
          </mxGeometry>
        </mxCell>
        <mxCell id="kza9Rs9y_WehxQbTQ6U_-197" value="购买" style="edgeLabel;html=1;align=center;verticalAlign=middle;resizable=0;points=[];" vertex="1" connectable="0" parent="kza9Rs9y_WehxQbTQ6U_-196">
          <mxGeometry x="-0.2661" y="-6" relative="1" as="geometry">
            <mxPoint as="offset" />
          </mxGeometry>
        </mxCell>
        <mxCell id="kza9Rs9y_WehxQbTQ6U_-198" value="商品" style="shape=table;startSize=30;container=1;collapsible=1;childLayout=tableLayout;fixedRows=1;rowLines=0;fontStyle=1;align=center;resizeLast=1;" vertex="1" parent="1">
          <mxGeometry x="190" y="330" width="230.5" height="175" as="geometry" />
        </mxCell>
        <mxCell id="kza9Rs9y_WehxQbTQ6U_-199" value="" style="shape=partialRectangle;collapsible=0;dropTarget=0;pointerEvents=0;fillColor=none;points=[[0,0.5],[1,0.5]];portConstraint=eastwest;top=0;left=0;right=0;bottom=1;" vertex="1" parent="kza9Rs9y_WehxQbTQ6U_-198">
          <mxGeometry y="30" width="230.5" height="30" as="geometry" />
        </mxCell>
        <mxCell id="kza9Rs9y_WehxQbTQ6U_-200" value="PK" style="shape=partialRectangle;overflow=hidden;connectable=0;fillColor=none;top=0;left=0;bottom=0;right=0;fontStyle=1;" vertex="1" parent="kza9Rs9y_WehxQbTQ6U_-199">
          <mxGeometry width="30" height="30" as="geometry">
            <mxRectangle width="30" height="30" as="alternateBounds" />
          </mxGeometry>
        </mxCell>
        <mxCell id="kza9Rs9y_WehxQbTQ6U_-201" value="id int NOT NULL " style="shape=partialRectangle;overflow=hidden;connectable=0;fillColor=none;top=0;left=0;bottom=0;right=0;align=left;spacingLeft=6;fontStyle=5;" vertex="1" parent="kza9Rs9y_WehxQbTQ6U_-199">
          <mxGeometry x="30" width="200.5" height="30" as="geometry">
            <mxRectangle width="200.5" height="30" as="alternateBounds" />
          </mxGeometry>
        </mxCell>
        <mxCell id="kza9Rs9y_WehxQbTQ6U_-202" value="" style="shape=partialRectangle;collapsible=0;dropTarget=0;pointerEvents=0;fillColor=none;points=[[0,0.5],[1,0.5]];portConstraint=eastwest;top=0;left=0;right=0;bottom=0;" vertex="1" parent="kza9Rs9y_WehxQbTQ6U_-198">
          <mxGeometry y="60" width="230.5" height="95" as="geometry" />
        </mxCell>
        <mxCell id="kza9Rs9y_WehxQbTQ6U_-203" value="" style="shape=partialRectangle;overflow=hidden;connectable=0;fillColor=none;top=0;left=0;bottom=0;right=0;" vertex="1" parent="kza9Rs9y_WehxQbTQ6U_-202">
          <mxGeometry width="30" height="95" as="geometry">
            <mxRectangle width="30" height="95" as="alternateBounds" />
          </mxGeometry>
        </mxCell>
        <mxCell id="kza9Rs9y_WehxQbTQ6U_-204" value="商品编码&#xa;商品类型【图书、课程】&#xa;关联ID&#xa;状态&#xa;创建时间&#xa;修改时间" style="shape=partialRectangle;overflow=hidden;connectable=0;fillColor=none;top=0;left=0;bottom=0;right=0;align=left;spacingLeft=6;" vertex="1" parent="kza9Rs9y_WehxQbTQ6U_-202">
          <mxGeometry x="30" width="200.5" height="95" as="geometry">
            <mxRectangle width="200.5" height="95" as="alternateBounds" />
          </mxGeometry>
        </mxCell>
        <mxCell id="kza9Rs9y_WehxQbTQ6U_-205" value="" style="shape=partialRectangle;collapsible=0;dropTarget=0;pointerEvents=0;fillColor=none;points=[[0,0.5],[1,0.5]];portConstraint=eastwest;top=0;left=0;right=0;bottom=0;" vertex="1" parent="kza9Rs9y_WehxQbTQ6U_-198">
          <mxGeometry y="155" width="230.5" height="20" as="geometry" />
        </mxCell>
        <mxCell id="kza9Rs9y_WehxQbTQ6U_-206" value="" style="shape=partialRectangle;overflow=hidden;connectable=0;fillColor=none;top=0;left=0;bottom=0;right=0;" vertex="1" parent="kza9Rs9y_WehxQbTQ6U_-205">
          <mxGeometry width="30" height="20" as="geometry">
            <mxRectangle width="30" height="20" as="alternateBounds" />
          </mxGeometry>
        </mxCell>
        <mxCell id="kza9Rs9y_WehxQbTQ6U_-207" value="" style="shape=partialRectangle;overflow=hidden;connectable=0;fillColor=none;top=0;left=0;bottom=0;right=0;align=left;spacingLeft=6;" vertex="1" parent="kza9Rs9y_WehxQbTQ6U_-205">
          <mxGeometry x="30" width="200.5" height="20" as="geometry">
            <mxRectangle width="200.5" height="20" as="alternateBounds" />
          </mxGeometry>
        </mxCell>
        <mxCell id="kza9Rs9y_WehxQbTQ6U_-208" value="课程材料明细" style="shape=table;startSize=30;container=1;collapsible=1;childLayout=tableLayout;fixedRows=1;rowLines=0;fontStyle=1;align=center;resizeLast=1;" vertex="1" parent="1">
          <mxGeometry x="865" y="110" width="200" height="165" as="geometry" />
        </mxCell>
        <mxCell id="kza9Rs9y_WehxQbTQ6U_-209" value="" style="shape=partialRectangle;collapsible=0;dropTarget=0;pointerEvents=0;fillColor=none;points=[[0,0.5],[1,0.5]];portConstraint=eastwest;top=0;left=0;right=0;bottom=1;" vertex="1" parent="kza9Rs9y_WehxQbTQ6U_-208">
          <mxGeometry y="30" width="200" height="30" as="geometry" />
        </mxCell>
        <mxCell id="kza9Rs9y_WehxQbTQ6U_-210" value="PK" style="shape=partialRectangle;overflow=hidden;connectable=0;fillColor=none;top=0;left=0;bottom=0;right=0;fontStyle=1;" vertex="1" parent="kza9Rs9y_WehxQbTQ6U_-209">
          <mxGeometry width="30" height="30" as="geometry">
            <mxRectangle width="30" height="30" as="alternateBounds" />
          </mxGeometry>
        </mxCell>
        <mxCell id="kza9Rs9y_WehxQbTQ6U_-211" value="id int NOT NULL " style="shape=partialRectangle;overflow=hidden;connectable=0;fillColor=none;top=0;left=0;bottom=0;right=0;align=left;spacingLeft=6;fontStyle=5;" vertex="1" parent="kza9Rs9y_WehxQbTQ6U_-209">
          <mxGeometry x="30" width="170" height="30" as="geometry">
            <mxRectangle width="170" height="30" as="alternateBounds" />
          </mxGeometry>
        </mxCell>
        <mxCell id="kza9Rs9y_WehxQbTQ6U_-212" value="" style="shape=partialRectangle;collapsible=0;dropTarget=0;pointerEvents=0;fillColor=none;points=[[0,0.5],[1,0.5]];portConstraint=eastwest;top=0;left=0;right=0;bottom=0;" vertex="1" parent="kza9Rs9y_WehxQbTQ6U_-208">
          <mxGeometry y="60" width="200" height="105" as="geometry" />
        </mxCell>
        <mxCell id="kza9Rs9y_WehxQbTQ6U_-213" value="" style="shape=partialRectangle;overflow=hidden;connectable=0;fillColor=none;top=0;left=0;bottom=0;right=0;" vertex="1" parent="kza9Rs9y_WehxQbTQ6U_-212">
          <mxGeometry width="30" height="105" as="geometry">
            <mxRectangle width="30" height="105" as="alternateBounds" />
          </mxGeometry>
        </mxCell>
        <mxCell id="kza9Rs9y_WehxQbTQ6U_-214" value="模块编码 char&#xa;书籍ID int&#xa;状态&#xa;价格&#xa;排序 int&#xa;创建时间&#xa;" style="shape=partialRectangle;overflow=hidden;connectable=0;fillColor=none;top=0;left=0;bottom=0;right=0;align=left;spacingLeft=6;" vertex="1" parent="kza9Rs9y_WehxQbTQ6U_-212">
          <mxGeometry x="30" width="170" height="105" as="geometry">
            <mxRectangle width="170" height="105" as="alternateBounds" />
          </mxGeometry>
        </mxCell>
        <mxCell id="kza9Rs9y_WehxQbTQ6U_-215" value="课程" style="shape=table;startSize=30;container=1;collapsible=1;childLayout=tableLayout;fixedRows=1;rowLines=0;fontStyle=1;align=center;resizeLast=1;" vertex="1" parent="1">
          <mxGeometry x="534.75" y="125" width="200.5" height="175" as="geometry" />
        </mxCell>
        <mxCell id="kza9Rs9y_WehxQbTQ6U_-216" value="" style="shape=partialRectangle;collapsible=0;dropTarget=0;pointerEvents=0;fillColor=none;points=[[0,0.5],[1,0.5]];portConstraint=eastwest;top=0;left=0;right=0;bottom=1;" vertex="1" parent="kza9Rs9y_WehxQbTQ6U_-215">
          <mxGeometry y="30" width="200.5" height="30" as="geometry" />
        </mxCell>
        <mxCell id="kza9Rs9y_WehxQbTQ6U_-217" value="PK" style="shape=partialRectangle;overflow=hidden;connectable=0;fillColor=none;top=0;left=0;bottom=0;right=0;fontStyle=1;" vertex="1" parent="kza9Rs9y_WehxQbTQ6U_-216">
          <mxGeometry width="30" height="30" as="geometry">
            <mxRectangle width="30" height="30" as="alternateBounds" />
          </mxGeometry>
        </mxCell>
        <mxCell id="kza9Rs9y_WehxQbTQ6U_-218" value="id int NOT NULL " style="shape=partialRectangle;overflow=hidden;connectable=0;fillColor=none;top=0;left=0;bottom=0;right=0;align=left;spacingLeft=6;fontStyle=5;" vertex="1" parent="kza9Rs9y_WehxQbTQ6U_-216">
          <mxGeometry x="30" width="170.5" height="30" as="geometry">
            <mxRectangle width="170.5" height="30" as="alternateBounds" />
          </mxGeometry>
        </mxCell>
        <mxCell id="kza9Rs9y_WehxQbTQ6U_-219" value="" style="shape=partialRectangle;collapsible=0;dropTarget=0;pointerEvents=0;fillColor=none;points=[[0,0.5],[1,0.5]];portConstraint=eastwest;top=0;left=0;right=0;bottom=0;" vertex="1" parent="kza9Rs9y_WehxQbTQ6U_-215">
          <mxGeometry y="60" width="200.5" height="95" as="geometry" />
        </mxCell>
        <mxCell id="kza9Rs9y_WehxQbTQ6U_-220" value="" style="shape=partialRectangle;overflow=hidden;connectable=0;fillColor=none;top=0;left=0;bottom=0;right=0;" vertex="1" parent="kza9Rs9y_WehxQbTQ6U_-219">
          <mxGeometry width="30" height="95" as="geometry">
            <mxRectangle width="30" height="95" as="alternateBounds" />
          </mxGeometry>
        </mxCell>
        <mxCell id="kza9Rs9y_WehxQbTQ6U_-221" value="课程编码&#xa;状态&#xa;创建时间&#xa;修改时间" style="shape=partialRectangle;overflow=hidden;connectable=0;fillColor=none;top=0;left=0;bottom=0;right=0;align=left;spacingLeft=6;" vertex="1" parent="kza9Rs9y_WehxQbTQ6U_-219">
          <mxGeometry x="30" width="170.5" height="95" as="geometry">
            <mxRectangle width="170.5" height="95" as="alternateBounds" />
          </mxGeometry>
        </mxCell>
        <mxCell id="kza9Rs9y_WehxQbTQ6U_-222" value="" style="shape=partialRectangle;collapsible=0;dropTarget=0;pointerEvents=0;fillColor=none;points=[[0,0.5],[1,0.5]];portConstraint=eastwest;top=0;left=0;right=0;bottom=0;" vertex="1" parent="kza9Rs9y_WehxQbTQ6U_-215">
          <mxGeometry y="155" width="200.5" height="20" as="geometry" />
        </mxCell>
        <mxCell id="kza9Rs9y_WehxQbTQ6U_-223" value="" style="shape=partialRectangle;overflow=hidden;connectable=0;fillColor=none;top=0;left=0;bottom=0;right=0;" vertex="1" parent="kza9Rs9y_WehxQbTQ6U_-222">
          <mxGeometry width="30" height="20" as="geometry">
            <mxRectangle width="30" height="20" as="alternateBounds" />
          </mxGeometry>
        </mxCell>
        <mxCell id="kza9Rs9y_WehxQbTQ6U_-224" value="" style="shape=partialRectangle;overflow=hidden;connectable=0;fillColor=none;top=0;left=0;bottom=0;right=0;align=left;spacingLeft=6;" vertex="1" parent="kza9Rs9y_WehxQbTQ6U_-222">
          <mxGeometry x="30" width="170.5" height="20" as="geometry">
            <mxRectangle width="170.5" height="20" as="alternateBounds" />
          </mxGeometry>
        </mxCell>
        <mxCell id="kza9Rs9y_WehxQbTQ6U_-225" value="" style="edgeStyle=entityRelationEdgeStyle;fontSize=12;html=1;endArrow=ERzeroToMany;startArrow=ERzeroToOne;rounded=0;exitX=1.026;exitY=0.296;exitDx=0;exitDy=0;exitPerimeter=0;" edge="1" parent="1" source="kza9Rs9y_WehxQbTQ6U_-219" target="kza9Rs9y_WehxQbTQ6U_-212">
          <mxGeometry width="100" height="100" relative="1" as="geometry">
            <mxPoint x="780" y="185" as="sourcePoint" />
            <mxPoint x="880" y="85" as="targetPoint" />
          </mxGeometry>
        </mxCell>
        <mxCell id="kza9Rs9y_WehxQbTQ6U_-226" value="" style="edgeStyle=entityRelationEdgeStyle;fontSize=12;html=1;endArrow=ERzeroToOne;startArrow=ERmandOne;rounded=0;exitX=1.002;exitY=0.325;exitDx=0;exitDy=0;exitPerimeter=0;" edge="1" parent="1" source="kza9Rs9y_WehxQbTQ6U_-202" target="kza9Rs9y_WehxQbTQ6U_-219">
          <mxGeometry width="100" height="100" relative="1" as="geometry">
            <mxPoint x="720" y="565" as="sourcePoint" />
            <mxPoint x="820" y="465" as="targetPoint" />
          </mxGeometry>
        </mxCell>
        <mxCell id="kza9Rs9y_WehxQbTQ6U_-227" value="书籍" style="shape=table;startSize=30;container=1;collapsible=1;childLayout=tableLayout;fixedRows=1;rowLines=0;fontStyle=1;align=center;resizeLast=1;" vertex="1" parent="1">
          <mxGeometry x="534.75" y="515" width="210" height="95" as="geometry" />
        </mxCell>
        <mxCell id="kza9Rs9y_WehxQbTQ6U_-228" value="" style="shape=partialRectangle;collapsible=0;dropTarget=0;pointerEvents=0;fillColor=none;points=[[0,0.5],[1,0.5]];portConstraint=eastwest;top=0;left=0;right=0;bottom=1;" vertex="1" parent="kza9Rs9y_WehxQbTQ6U_-227">
          <mxGeometry y="30" width="210" height="20" as="geometry" />
        </mxCell>
        <mxCell id="kza9Rs9y_WehxQbTQ6U_-229" value="PK" style="shape=partialRectangle;overflow=hidden;connectable=0;fillColor=none;top=0;left=0;bottom=0;right=0;fontStyle=1;" vertex="1" parent="kza9Rs9y_WehxQbTQ6U_-228">
          <mxGeometry width="30" height="20" as="geometry">
            <mxRectangle width="30" height="20" as="alternateBounds" />
          </mxGeometry>
        </mxCell>
        <mxCell id="kza9Rs9y_WehxQbTQ6U_-230" value="id int NOT NULL " style="shape=partialRectangle;overflow=hidden;connectable=0;fillColor=none;top=0;left=0;bottom=0;right=0;align=left;spacingLeft=6;fontStyle=5;" vertex="1" parent="kza9Rs9y_WehxQbTQ6U_-228">
          <mxGeometry x="30" width="180" height="20" as="geometry">
            <mxRectangle width="180" height="20" as="alternateBounds" />
          </mxGeometry>
        </mxCell>
        <mxCell id="kza9Rs9y_WehxQbTQ6U_-231" value="" style="shape=partialRectangle;collapsible=0;dropTarget=0;pointerEvents=0;fillColor=none;points=[[0,0.5],[1,0.5]];portConstraint=eastwest;top=0;left=0;right=0;bottom=0;" vertex="1" parent="kza9Rs9y_WehxQbTQ6U_-227">
          <mxGeometry y="50" width="210" height="45" as="geometry" />
        </mxCell>
        <mxCell id="kza9Rs9y_WehxQbTQ6U_-232" value="" style="shape=partialRectangle;overflow=hidden;connectable=0;fillColor=none;top=0;left=0;bottom=0;right=0;" vertex="1" parent="kza9Rs9y_WehxQbTQ6U_-231">
          <mxGeometry width="30" height="45" as="geometry">
            <mxRectangle width="30" height="45" as="alternateBounds" />
          </mxGeometry>
        </mxCell>
        <mxCell id="kza9Rs9y_WehxQbTQ6U_-233" value="" style="shape=partialRectangle;overflow=hidden;connectable=0;fillColor=none;top=0;left=0;bottom=0;right=0;align=left;spacingLeft=6;" vertex="1" parent="kza9Rs9y_WehxQbTQ6U_-231">
          <mxGeometry x="30" width="180" height="45" as="geometry">
            <mxRectangle width="180" height="45" as="alternateBounds" />
          </mxGeometry>
        </mxCell>
        <mxCell id="kza9Rs9y_WehxQbTQ6U_-234" value="" style="edgeStyle=entityRelationEdgeStyle;fontSize=12;html=1;endArrow=ERzeroToOne;startArrow=ERmandOne;rounded=0;entryX=0;entryY=0.5;entryDx=0;entryDy=0;exitX=1;exitY=0.5;exitDx=0;exitDy=0;" edge="1" parent="1" source="kza9Rs9y_WehxQbTQ6U_-202" target="kza9Rs9y_WehxQbTQ6U_-231">
          <mxGeometry width="100" height="100" relative="1" as="geometry">
            <mxPoint x="410" y="415" as="sourcePoint" />
            <mxPoint x="545" y="243" as="targetPoint" />
          </mxGeometry>
        </mxCell>
        <mxCell id="kza9Rs9y_WehxQbTQ6U_-235" value="" style="edgeStyle=entityRelationEdgeStyle;fontSize=12;html=1;endArrow=ERoneToMany;startArrow=ERmandOne;rounded=0;" edge="1" parent="1" source="kza9Rs9y_WehxQbTQ6U_-70" target="kza9Rs9y_WehxQbTQ6U_-59">
          <mxGeometry width="100" height="100" relative="1" as="geometry">
            <mxPoint x="1000" y="603" as="sourcePoint" />
            <mxPoint x="1257" y="590" as="targetPoint" />
          </mxGeometry>
        </mxCell>
        <mxCell id="kza9Rs9y_WehxQbTQ6U_-236" value="支付成功后发货" style="edgeLabel;html=1;align=center;verticalAlign=middle;resizable=0;points=[];" vertex="1" connectable="0" parent="kza9Rs9y_WehxQbTQ6U_-235">
          <mxGeometry x="-0.2661" y="-6" relative="1" as="geometry">
            <mxPoint as="offset" />
          </mxGeometry>
        </mxCell>
      </root>
    </mxGraphModel>
  </diagram>
</mxfile>
